<svg width="500" height="105" viewBox="0 0 500 105" fill="none" xmlns="http://www.w3.org/2000/svg">
<path d="M23.5035 57.936C21.0215 57.936 18.7775 57.681 16.7715 57.171C14.7655 56.627 12.9465 55.845 11.3145 54.825C9.71647 53.805 8.27147 52.581 6.97947 51.153L11.3655 45.441C13.4055 47.651 15.4455 49.198 17.4855 50.082C19.5595 50.966 21.7185 51.408 23.9625 51.408C25.0845 51.408 26.1725 51.272 27.2265 51C28.2805 50.694 29.1305 50.252 29.7765 49.674C30.4225 49.062 30.7455 48.314 30.7455 47.43C30.7455 46.818 30.5755 46.291 30.2355 45.849C29.9295 45.407 29.4875 45.033 28.9095 44.727C28.3315 44.421 27.6515 44.149 26.8695 43.911C26.1215 43.639 25.3225 43.418 24.4725 43.248C23.6565 43.078 22.7895 42.942 21.8715 42.84C19.7975 42.5 17.9445 42.024 16.3125 41.412C14.6805 40.8 13.3035 40.052 12.1815 39.168C11.0935 38.25 10.2605 37.196 9.68247 36.006C9.10447 34.782 8.81547 33.388 8.81547 31.824C8.81547 30.226 9.18947 28.764 9.93747 27.438C10.7195 26.078 11.7735 24.922 13.0995 23.97C14.4595 23.018 16.0235 22.287 17.7915 21.777C19.5935 21.267 21.4975 21.012 23.5035 21.012C25.8155 21.012 27.8555 21.25 29.6235 21.726C31.4255 22.202 33.0065 22.882 34.3665 23.766C35.7265 24.65 36.8485 25.704 37.7325 26.928L33.2445 31.926C32.4285 30.974 31.4935 30.175 30.4395 29.529C29.3855 28.883 28.2635 28.407 27.0735 28.101C25.9175 27.761 24.7105 27.591 23.4525 27.591C22.1605 27.591 21.0045 27.744 19.9845 28.05C18.9985 28.322 18.1995 28.747 17.5875 29.325C17.0095 29.869 16.7205 30.549 16.7205 31.365C16.7205 32.045 16.9245 32.64 17.3325 33.15C17.7745 33.626 18.3525 34.034 19.0665 34.374C19.8145 34.714 20.6815 35.003 21.6675 35.241C22.6535 35.479 23.6735 35.683 24.7275 35.853C26.6655 36.159 28.4845 36.567 30.1845 37.077C31.8845 37.587 33.3635 38.233 34.6215 39.015C35.8795 39.797 36.8485 40.8 37.5285 42.024C38.2425 43.214 38.5995 44.659 38.5995 46.359C38.5995 48.773 37.9535 50.847 36.6615 52.581C35.4035 54.315 33.6355 55.641 31.3575 56.559C29.0795 57.477 26.4615 57.936 23.5035 57.936ZM73.2225 57.936C70.3325 57.936 67.6805 57.477 65.2665 56.559C62.8865 55.641 60.7955 54.349 58.9935 52.683C57.1915 51.017 55.8145 49.062 54.8625 46.818C53.9105 44.574 53.4345 42.126 53.4345 39.474C53.4345 36.822 53.9105 34.391 54.8625 32.181C55.8145 29.937 57.1915 27.982 58.9935 26.316C60.7955 24.616 62.8865 23.307 65.2665 22.389C67.6805 21.471 70.3325 21.012 73.2225 21.012C76.1125 21.012 78.7475 21.471 81.1275 22.389C83.5415 23.307 85.6325 24.616 87.4005 26.316C89.2025 27.982 90.5795 29.937 91.5315 32.181C92.5175 34.425 93.0105 36.856 93.0105 39.474C93.0105 42.092 92.5175 44.523 91.5315 46.767C90.5795 49.011 89.2025 50.983 87.4005 52.683C85.6325 54.349 83.5415 55.641 81.1275 56.559C78.7475 57.477 76.1125 57.936 73.2225 57.936ZM73.2225 50.694C74.9565 50.694 76.5545 50.422 78.0165 49.878C79.5125 49.334 80.7875 48.552 81.8415 47.532C82.9295 46.512 83.7625 45.322 84.3405 43.962C84.9525 42.602 85.2585 41.106 85.2585 39.474C85.2585 37.842 84.9525 36.346 84.3405 34.986C83.7625 33.626 82.9295 32.453 81.8415 31.467C80.7875 30.447 79.5125 29.665 78.0165 29.121C76.5545 28.543 74.9565 28.254 73.2225 28.254C71.4885 28.254 69.8905 28.543 68.4285 29.121C66.9665 29.665 65.6745 30.447 64.5525 31.467C63.4645 32.487 62.6315 33.677 62.0535 35.037C61.5095 36.397 61.2375 37.876 61.2375 39.474C61.2375 41.106 61.5095 42.602 62.0535 43.962C62.6315 45.288 63.4645 46.478 64.5525 47.532C65.6745 48.552 66.9665 49.334 68.4285 49.878C69.8905 50.422 71.4885 50.694 73.2225 50.694ZM110.437 57.426V21.726H118.087V57.426H110.437ZM113.701 43.452V36.873H134.866V43.452H113.701ZM113.956 28.611V21.726H137.008V28.611H113.956ZM154.625 57.426V50.694H162.02V28.458H154.625V21.726H177.065V28.458H169.67V50.694H177.065V57.426H154.625ZM192.094 57.426L207.496 21.726H214.687L230.038 57.426H222.082L213.361 36.975C213.089 36.363 212.8 35.666 212.494 34.884C212.222 34.102 211.933 33.303 211.627 32.487C211.355 31.671 211.083 30.872 210.811 30.09C210.573 29.308 210.352 28.611 210.148 27.999L211.729 27.948C211.525 28.73 211.287 29.512 211.015 30.294C210.777 31.042 210.505 31.807 210.199 32.589C209.927 33.371 209.638 34.136 209.332 34.884C209.026 35.632 208.72 36.38 208.414 37.128L199.693 57.426H192.094ZM199.132 50.133L201.733 43.962H220.042L222.031 50.133H199.132Z" fill="#553F33"/>
<path d="M23.5035 57.936C21.0215 57.936 18.7775 57.681 16.7715 57.171C14.7655 56.627 12.9465 55.845 11.3145 54.825C9.71647 53.805 8.27147 52.581 6.97947 51.153L11.3655 45.441C13.4055 47.651 15.4455 49.198 17.4855 50.082C19.5595 50.966 21.7185 51.408 23.9625 51.408C25.0845 51.408 26.1725 51.272 27.2265 51C28.2805 50.694 29.1305 50.252 29.7765 49.674C30.4225 49.062 30.7455 48.314 30.7455 47.43C30.7455 46.818 30.5755 46.291 30.2355 45.849C29.9295 45.407 29.4875 45.033 28.9095 44.727C28.3315 44.421 27.6515 44.149 26.8695 43.911C26.1215 43.639 25.3225 43.418 24.4725 43.248C23.6565 43.078 22.7895 42.942 21.8715 42.84C19.7975 42.5 17.9445 42.024 16.3125 41.412C14.6805 40.8 13.3035 40.052 12.1815 39.168C11.0935 38.25 10.2605 37.196 9.68247 36.006C9.10447 34.782 8.81547 33.388 8.81547 31.824C8.81547 30.226 9.18947 28.764 9.93747 27.438C10.7195 26.078 11.7735 24.922 13.0995 23.97C14.4595 23.018 16.0235 22.287 17.7915 21.777C19.5935 21.267 21.4975 21.012 23.5035 21.012C25.8155 21.012 27.8555 21.25 29.6235 21.726C31.4255 22.202 33.0065 22.882 34.3665 23.766C35.7265 24.65 36.8485 25.704 37.7325 26.928L33.2445 31.926C32.4285 30.974 31.4935 30.175 30.4395 29.529C29.3855 28.883 28.2635 28.407 27.0735 28.101C25.9175 27.761 24.7105 27.591 23.4525 27.591C22.1605 27.591 21.0045 27.744 19.9845 28.05C18.9985 28.322 18.1995 28.747 17.5875 29.325C17.0095 29.869 16.7205 30.549 16.7205 31.365C16.7205 32.045 16.9245 32.64 17.3325 33.15C17.7745 33.626 18.3525 34.034 19.0665 34.374C19.8145 34.714 20.6815 35.003 21.6675 35.241C22.6535 35.479 23.6735 35.683 24.7275 35.853C26.6655 36.159 28.4845 36.567 30.1845 37.077C31.8845 37.587 33.3635 38.233 34.6215 39.015C35.8795 39.797 36.8485 40.8 37.5285 42.024C38.2425 43.214 38.5995 44.659 38.5995 46.359C38.5995 48.773 37.9535 50.847 36.6615 52.581C35.4035 54.315 33.6355 55.641 31.3575 56.559C29.0795 57.477 26.4615 57.936 23.5035 57.936ZM73.2225 57.936C70.3325 57.936 67.6805 57.477 65.2665 56.559C62.8865 55.641 60.7955 54.349 58.9935 52.683C57.1915 51.017 55.8145 49.062 54.8625 46.818C53.9105 44.574 53.4345 42.126 53.4345 39.474C53.4345 36.822 53.9105 34.391 54.8625 32.181C55.8145 29.937 57.1915 27.982 58.9935 26.316C60.7955 24.616 62.8865 23.307 65.2665 22.389C67.6805 21.471 70.3325 21.012 73.2225 21.012C76.1125 21.012 78.7475 21.471 81.1275 22.389C83.5415 23.307 85.6325 24.616 87.4005 26.316C89.2025 27.982 90.5795 29.937 91.5315 32.181C92.5175 34.425 93.0105 36.856 93.0105 39.474C93.0105 42.092 92.5175 44.523 91.5315 46.767C90.5795 49.011 89.2025 50.983 87.4005 52.683C85.6325 54.349 83.5415 55.641 81.1275 56.559C78.7475 57.477 76.1125 57.936 73.2225 57.936ZM73.2225 50.694C74.9565 50.694 76.5545 50.422 78.0165 49.878C79.5125 49.334 80.7875 48.552 81.8415 47.532C82.9295 46.512 83.7625 45.322 84.3405 43.962C84.9525 42.602 85.2585 41.106 85.2585 39.474C85.2585 37.842 84.9525 36.346 84.3405 34.986C83.7625 33.626 82.9295 32.453 81.8415 31.467C80.7875 30.447 79.5125 29.665 78.0165 29.121C76.5545 28.543 74.9565 28.254 73.2225 28.254C71.4885 28.254 69.8905 28.543 68.4285 29.121C66.9665 29.665 65.6745 30.447 64.5525 31.467C63.4645 32.487 62.6315 33.677 62.0535 35.037C61.5095 36.397 61.2375 37.876 61.2375 39.474C61.2375 41.106 61.5095 42.602 62.0535 43.962C62.6315 45.288 63.4645 46.478 64.5525 47.532C65.6745 48.552 66.9665 49.334 68.4285 49.878C69.8905 50.422 71.4885 50.694 73.2225 50.694ZM110.437 57.426V21.726H118.087V57.426H110.437ZM113.701 43.452V36.873H134.866V43.452H113.701ZM113.956 28.611V21.726H137.008V28.611H113.956ZM154.625 57.426V50.694H162.02V28.458H154.625V21.726H177.065V28.458H169.67V50.694H177.065V57.426H154.625ZM192.094 57.426L207.496 21.726H214.687L230.038 57.426H222.082L213.361 36.975C213.089 36.363 212.8 35.666 212.494 34.884C212.222 34.102 211.933 33.303 211.627 32.487C211.355 31.671 211.083 30.872 210.811 30.09C210.573 29.308 210.352 28.611 210.148 27.999L211.729 27.948C211.525 28.73 211.287 29.512 211.015 30.294C210.777 31.042 210.505 31.807 210.199 32.589C209.927 33.371 209.638 34.136 209.332 34.884C209.026 35.632 208.72 36.38 208.414 37.128L199.693 57.426H192.094ZM199.132 50.133L201.733 43.962H220.042L222.031 50.133H199.132Z" fill="#553F33"/>
<path d="M6.375 91.3419V55.6419H14.025V84.4569H33.048V91.3419H6.375ZM29.5589 91.3419L44.9609 55.6419H52.1519L67.5029 91.3419H59.5469L50.8259 70.8909C50.5539 70.2789 50.2649 69.5819 49.9589 68.7999C49.6869 68.0179 49.3979 67.2189 49.0919 66.4029C48.8199 65.5869 48.5479 64.7879 48.2759 64.0059C48.0379 63.2239 47.8169 62.5269 47.6129 61.9149L49.1939 61.8639C48.9899 62.6459 48.7519 63.4279 48.4799 64.2099C48.2419 64.9579 47.9699 65.7229 47.6639 66.5049C47.3919 67.2869 47.1029 68.0519 46.7969 68.7999C46.4909 69.5479 46.1849 70.2959 45.8789 71.0439L37.1579 91.3419H29.5589ZM36.5969 84.0489L39.1979 77.8779H57.5069L59.4959 84.0489H36.5969ZM66.4052 91.3419V55.6419H84.1532C86.5332 55.6419 88.6412 56.1349 90.4772 57.1209C92.3472 58.0729 93.7922 59.4159 94.8122 61.1499C95.8662 62.8499 96.3932 64.7879 96.3932 66.9639C96.3932 69.1399 95.8492 71.1119 94.7612 72.8799C93.6732 74.6479 92.1772 76.0589 90.2732 77.1129C88.4032 78.1329 86.3292 78.6429 84.0512 78.6429H73.8002V91.3419H66.4052ZM89.2022 91.3419L78.9002 75.2259L86.8562 73.9509L98.1782 91.3929L89.2022 91.3419ZM73.8002 72.4209H83.4902C84.5102 72.4209 85.4112 72.1999 86.1932 71.7579C86.9752 71.3159 87.5872 70.7039 88.0292 69.9219C88.4712 69.1399 88.6922 68.2559 88.6922 67.2699C88.6922 66.2839 88.4372 65.4169 87.9272 64.6689C87.4512 63.9209 86.7712 63.3429 85.8872 62.9349C85.0372 62.4929 84.0342 62.2719 82.8782 62.2719H73.8002V72.4209ZM112.569 91.8519C110.087 91.8519 107.843 91.5969 105.837 91.0869C103.831 90.5429 102.012 89.7609 100.38 88.7409C98.782 87.7209 97.337 86.4969 96.045 85.0689L100.431 79.3569C102.471 81.5669 104.511 83.1139 106.551 83.9979C108.625 84.8819 110.784 85.3239 113.028 85.3239C114.15 85.3239 115.238 85.1879 116.292 84.9159C117.346 84.6099 118.196 84.1679 118.842 83.5899C119.488 82.9779 119.811 82.2299 119.811 81.3459C119.811 80.7339 119.641 80.2069 119.301 79.7649C118.995 79.3229 118.553 78.9489 117.975 78.6429C117.397 78.3369 116.717 78.0649 115.935 77.8269C115.187 77.5549 114.388 77.3339 113.538 77.1639C112.722 76.9939 111.855 76.8579 110.937 76.7559C108.863 76.4159 107.01 75.9399 105.378 75.3279C103.746 74.7159 102.369 73.9679 101.247 73.0839C100.159 72.1659 99.326 71.1119 98.748 69.9219C98.17 68.6979 97.881 67.3039 97.881 65.7399C97.881 64.1419 98.255 62.6799 99.003 61.3539C99.785 59.9939 100.839 58.8379 102.165 57.8859C103.525 56.9339 105.089 56.2029 106.857 55.6929C108.659 55.1829 110.563 54.9279 112.569 54.9279C114.881 54.9279 116.921 55.1659 118.689 55.6419C120.491 56.1179 122.072 56.7979 123.432 57.6819C124.792 58.5659 125.914 59.6199 126.798 60.8439L122.31 65.8419C121.494 64.8899 120.559 64.0909 119.505 63.4449C118.451 62.7989 117.329 62.3229 116.139 62.0169C114.983 61.6769 113.776 61.5069 112.518 61.5069C111.226 61.5069 110.07 61.6599 109.05 61.9659C108.064 62.2379 107.265 62.6629 106.653 63.2409C106.075 63.7849 105.786 64.4649 105.786 65.2809C105.786 65.9609 105.99 66.5559 106.398 67.0659C106.84 67.5419 107.418 67.9499 108.132 68.2899C108.88 68.6299 109.747 68.9189 110.733 69.1569C111.719 69.3949 112.739 69.5989 113.793 69.7689C115.731 70.0749 117.55 70.4829 119.25 70.9929C120.95 71.5029 122.429 72.1489 123.687 72.9309C124.945 73.7129 125.914 74.7159 126.594 75.9399C127.308 77.1299 127.665 78.5749 127.665 80.2749C127.665 82.6889 127.019 84.7629 125.727 86.4969C124.469 88.2309 122.701 89.5569 120.423 90.4749C118.145 91.3929 115.527 91.8519 112.569 91.8519ZM141.837 91.8519C139.355 91.8519 137.111 91.5969 135.105 91.0869C133.099 90.5429 131.28 89.7609 129.648 88.7409C128.05 87.7209 126.605 86.4969 125.313 85.0689L129.699 79.3569C131.739 81.5669 133.779 83.1139 135.819 83.9979C137.893 84.8819 140.052 85.3239 142.296 85.3239C143.418 85.3239 144.506 85.1879 145.56 84.9159C146.614 84.6099 147.464 84.1679 148.11 83.5899C148.756 82.9779 149.079 82.2299 149.079 81.3459C149.079 80.7339 148.909 80.2069 148.569 79.7649C148.263 79.3229 147.821 78.9489 147.243 78.6429C146.665 78.3369 145.985 78.0649 145.203 77.8269C144.455 77.5549 143.656 77.3339 142.806 77.1639C141.99 76.9939 141.123 76.8579 140.205 76.7559C138.131 76.4159 136.278 75.9399 134.646 75.3279C133.014 74.7159 131.637 73.9679 130.515 73.0839C129.427 72.1659 128.594 71.1119 128.016 69.9219C127.438 68.6979 127.149 67.3039 127.149 65.7399C127.149 64.1419 127.523 62.6799 128.271 61.3539C129.053 59.9939 130.107 58.8379 131.433 57.8859C132.793 56.9339 134.357 56.2029 136.125 55.6929C137.927 55.1829 139.831 54.9279 141.837 54.9279C144.149 54.9279 146.189 55.1659 147.957 55.6419C149.759 56.1179 151.34 56.7979 152.7 57.6819C154.06 58.5659 155.182 59.6199 156.066 60.8439L151.578 65.8419C150.762 64.8899 149.827 64.0909 148.773 63.4449C147.719 62.7989 146.597 62.3229 145.407 62.0169C144.251 61.6769 143.044 61.5069 141.786 61.5069C140.494 61.5069 139.338 61.6599 138.318 61.9659C137.332 62.2379 136.533 62.6629 135.921 63.2409C135.343 63.7849 135.054 64.4649 135.054 65.2809C135.054 65.9609 135.258 66.5559 135.666 67.0659C136.108 67.5419 136.686 67.9499 137.4 68.2899C138.148 68.6299 139.015 68.9189 140.001 69.1569C140.987 69.3949 142.007 69.5989 143.061 69.7689C144.999 70.0749 146.818 70.4829 148.518 70.9929C150.218 71.5029 151.697 72.1489 152.955 72.9309C154.213 73.7129 155.182 74.7159 155.862 75.9399C156.576 77.1299 156.933 78.5749 156.933 80.2749C156.933 82.6889 156.287 84.7629 154.995 86.4969C153.737 88.2309 151.969 89.5569 149.691 90.4749C147.413 91.3929 144.795 91.8519 141.837 91.8519ZM175.185 91.8519C172.295 91.8519 169.643 91.3929 167.229 90.4749C164.849 89.5569 162.758 88.2649 160.956 86.5989C159.154 84.9329 157.777 82.9779 156.825 80.7339C155.873 78.4899 155.397 76.0419 155.397 73.3899C155.397 70.7379 155.873 68.3069 156.825 66.0969C157.777 63.8529 159.154 61.8979 160.956 60.2319C162.758 58.5319 164.849 57.2229 167.229 56.3049C169.643 55.3869 172.295 54.9279 175.185 54.9279C178.075 54.9279 180.71 55.3869 183.09 56.3049C185.504 57.2229 187.595 58.5319 189.363 60.2319C191.165 61.8979 192.542 63.8529 193.494 66.0969C194.48 68.3409 194.973 70.7719 194.973 73.3899C194.973 76.0079 194.48 78.4389 193.494 80.6829C192.542 82.9269 191.165 84.8989 189.363 86.5989C187.595 88.2649 185.504 89.5569 183.09 90.4749C180.71 91.3929 178.075 91.8519 175.185 91.8519ZM175.185 84.6099C176.919 84.6099 178.517 84.3379 179.979 83.7939C181.475 83.2499 182.75 82.4679 183.804 81.4479C184.892 80.4279 185.725 79.2379 186.303 77.8779C186.915 76.5179 187.221 75.0219 187.221 73.3899C187.221 71.7579 186.915 70.2619 186.303 68.9019C185.725 67.5419 184.892 66.3689 183.804 65.3829C182.75 64.3629 181.475 63.5809 179.979 63.0369C178.517 62.4589 176.919 62.1699 175.185 62.1699C173.451 62.1699 171.853 62.4589 170.391 63.0369C168.929 63.5809 167.637 64.3629 166.515 65.3829C165.427 66.4029 164.594 67.5929 164.016 68.9529C163.472 70.3129 163.2 71.7919 163.2 73.3899C163.2 75.0219 163.472 76.5179 164.016 77.8779C164.594 79.2039 165.427 80.3939 166.515 81.4479C167.637 82.4679 168.929 83.2499 170.391 83.7939C171.853 84.3379 173.451 84.6099 175.185 84.6099ZM196.028 91.3419V55.6419H203.066L225.659 82.3149H224.435C224.265 81.1929 224.129 80.1049 224.027 79.0509C223.925 77.9629 223.823 76.8919 223.721 75.8379C223.653 74.7499 223.585 73.6619 223.517 72.5739C223.483 71.4519 223.449 70.3129 223.415 69.1569C223.415 67.9669 223.415 66.7089 223.415 65.3829V55.6419H230.912V91.3419H223.772L200.771 64.4139L202.505 64.4649C202.607 65.7229 202.709 66.8789 202.811 67.9329C202.913 68.9529 203.015 69.9049 203.117 70.7889C203.219 71.6729 203.287 72.5229 203.321 73.3389C203.389 74.1549 203.44 74.9879 203.474 75.8379C203.508 76.6879 203.525 77.5719 203.525 78.4899V91.3419H196.028Z" fill="#553F33"/>
<path d="M6.375 91.3419V55.6419H14.025V84.4569H33.048V91.3419H6.375ZM29.5589 91.3419L44.9609 55.6419H52.1519L67.5029 91.3419H59.5469L50.8259 70.8909C50.5539 70.2789 50.2649 69.5819 49.9589 68.7999C49.6869 68.0179 49.3979 67.2189 49.0919 66.4029C48.8199 65.5869 48.5479 64.7879 48.2759 64.0059C48.0379 63.2239 47.8169 62.5269 47.6129 61.9149L49.1939 61.8639C48.9899 62.6459 48.7519 63.4279 48.4799 64.2099C48.2419 64.9579 47.9699 65.7229 47.6639 66.5049C47.3919 67.2869 47.1029 68.0519 46.7969 68.7999C46.4909 69.5479 46.1849 70.2959 45.8789 71.0439L37.1579 91.3419H29.5589ZM36.5969 84.0489L39.1979 77.8779H57.5069L59.4959 84.0489H36.5969ZM66.4052 91.3419V55.6419H84.1532C86.5332 55.6419 88.6412 56.1349 90.4772 57.1209C92.3472 58.0729 93.7922 59.4159 94.8122 61.1499C95.8662 62.8499 96.3932 64.7879 96.3932 66.9639C96.3932 69.1399 95.8492 71.1119 94.7612 72.8799C93.6732 74.6479 92.1772 76.0589 90.2732 77.1129C88.4032 78.1329 86.3292 78.6429 84.0512 78.6429H73.8002V91.3419H66.4052ZM89.2022 91.3419L78.9002 75.2259L86.8562 73.9509L98.1782 91.3929L89.2022 91.3419ZM73.8002 72.4209H83.4902C84.5102 72.4209 85.4112 72.1999 86.1932 71.7579C86.9752 71.3159 87.5872 70.7039 88.0292 69.9219C88.4712 69.1399 88.6922 68.2559 88.6922 67.2699C88.6922 66.2839 88.4372 65.4169 87.9272 64.6689C87.4512 63.9209 86.7712 63.3429 85.8872 62.9349C85.0372 62.4929 84.0342 62.2719 82.8782 62.2719H73.8002V72.4209ZM112.569 91.8519C110.087 91.8519 107.843 91.5969 105.837 91.0869C103.831 90.5429 102.012 89.7609 100.38 88.7409C98.782 87.7209 97.337 86.4969 96.045 85.0689L100.431 79.3569C102.471 81.5669 104.511 83.1139 106.551 83.9979C108.625 84.8819 110.784 85.3239 113.028 85.3239C114.15 85.3239 115.238 85.1879 116.292 84.9159C117.346 84.6099 118.196 84.1679 118.842 83.5899C119.488 82.9779 119.811 82.2299 119.811 81.3459C119.811 80.7339 119.641 80.2069 119.301 79.7649C118.995 79.3229 118.553 78.9489 117.975 78.6429C117.397 78.3369 116.717 78.0649 115.935 77.8269C115.187 77.5549 114.388 77.3339 113.538 77.1639C112.722 76.9939 111.855 76.8579 110.937 76.7559C108.863 76.4159 107.01 75.9399 105.378 75.3279C103.746 74.7159 102.369 73.9679 101.247 73.0839C100.159 72.1659 99.326 71.1119 98.748 69.9219C98.17 68.6979 97.881 67.3039 97.881 65.7399C97.881 64.1419 98.255 62.6799 99.003 61.3539C99.785 59.9939 100.839 58.8379 102.165 57.8859C103.525 56.9339 105.089 56.2029 106.857 55.6929C108.659 55.1829 110.563 54.9279 112.569 54.9279C114.881 54.9279 116.921 55.1659 118.689 55.6419C120.491 56.1179 122.072 56.7979 123.432 57.6819C124.792 58.5659 125.914 59.6199 126.798 60.8439L122.31 65.8419C121.494 64.8899 120.559 64.0909 119.505 63.4449C118.451 62.7989 117.329 62.3229 116.139 62.0169C114.983 61.6769 113.776 61.5069 112.518 61.5069C111.226 61.5069 110.07 61.6599 109.05 61.9659C108.064 62.2379 107.265 62.6629 106.653 63.2409C106.075 63.7849 105.786 64.4649 105.786 65.2809C105.786 65.9609 105.99 66.5559 106.398 67.0659C106.84 67.5419 107.418 67.9499 108.132 68.2899C108.88 68.6299 109.747 68.9189 110.733 69.1569C111.719 69.3949 112.739 69.5989 113.793 69.7689C115.731 70.0749 117.55 70.4829 119.25 70.9929C120.95 71.5029 122.429 72.1489 123.687 72.9309C124.945 73.7129 125.914 74.7159 126.594 75.9399C127.308 77.1299 127.665 78.5749 127.665 80.2749C127.665 82.6889 127.019 84.7629 125.727 86.4969C124.469 88.2309 122.701 89.5569 120.423 90.4749C118.145 91.3929 115.527 91.8519 112.569 91.8519ZM141.837 91.8519C139.355 91.8519 137.111 91.5969 135.105 91.0869C133.099 90.5429 131.28 89.7609 129.648 88.7409C128.05 87.7209 126.605 86.4969 125.313 85.0689L129.699 79.3569C131.739 81.5669 133.779 83.1139 135.819 83.9979C137.893 84.8819 140.052 85.3239 142.296 85.3239C143.418 85.3239 144.506 85.1879 145.56 84.9159C146.614 84.6099 147.464 84.1679 148.11 83.5899C148.756 82.9779 149.079 82.2299 149.079 81.3459C149.079 80.7339 148.909 80.2069 148.569 79.7649C148.263 79.3229 147.821 78.9489 147.243 78.6429C146.665 78.3369 145.985 78.0649 145.203 77.8269C144.455 77.5549 143.656 77.3339 142.806 77.1639C141.99 76.9939 141.123 76.8579 140.205 76.7559C138.131 76.4159 136.278 75.9399 134.646 75.3279C133.014 74.7159 131.637 73.9679 130.515 73.0839C129.427 72.1659 128.594 71.1119 128.016 69.9219C127.438 68.6979 127.149 67.3039 127.149 65.7399C127.149 64.1419 127.523 62.6799 128.271 61.3539C129.053 59.9939 130.107 58.8379 131.433 57.8859C132.793 56.9339 134.357 56.2029 136.125 55.6929C137.927 55.1829 139.831 54.9279 141.837 54.9279C144.149 54.9279 146.189 55.1659 147.957 55.6419C149.759 56.1179 151.34 56.7979 152.7 57.6819C154.06 58.5659 155.182 59.6199 156.066 60.8439L151.578 65.8419C150.762 64.8899 149.827 64.0909 148.773 63.4449C147.719 62.7989 146.597 62.3229 145.407 62.0169C144.251 61.6769 143.044 61.5069 141.786 61.5069C140.494 61.5069 139.338 61.6599 138.318 61.9659C137.332 62.2379 136.533 62.6629 135.921 63.2409C135.343 63.7849 135.054 64.4649 135.054 65.2809C135.054 65.9609 135.258 66.5559 135.666 67.0659C136.108 67.5419 136.686 67.9499 137.4 68.2899C138.148 68.6299 139.015 68.9189 140.001 69.1569C140.987 69.3949 142.007 69.5989 143.061 69.7689C144.999 70.0749 146.818 70.4829 148.518 70.9929C150.218 71.5029 151.697 72.1489 152.955 72.9309C154.213 73.7129 155.182 74.7159 155.862 75.9399C156.576 77.1299 156.933 78.5749 156.933 80.2749C156.933 82.6889 156.287 84.7629 154.995 86.4969C153.737 88.2309 151.969 89.5569 149.691 90.4749C147.413 91.3929 144.795 91.8519 141.837 91.8519ZM175.185 91.8519C172.295 91.8519 169.643 91.3929 167.229 90.4749C164.849 89.5569 162.758 88.2649 160.956 86.5989C159.154 84.9329 157.777 82.9779 156.825 80.7339C155.873 78.4899 155.397 76.0419 155.397 73.3899C155.397 70.7379 155.873 68.3069 156.825 66.0969C157.777 63.8529 159.154 61.8979 160.956 60.2319C162.758 58.5319 164.849 57.2229 167.229 56.3049C169.643 55.3869 172.295 54.9279 175.185 54.9279C178.075 54.9279 180.71 55.3869 183.09 56.3049C185.504 57.2229 187.595 58.5319 189.363 60.2319C191.165 61.8979 192.542 63.8529 193.494 66.0969C194.48 68.3409 194.973 70.7719 194.973 73.3899C194.973 76.0079 194.48 78.4389 193.494 80.6829C192.542 82.9269 191.165 84.8989 189.363 86.5989C187.595 88.2649 185.504 89.5569 183.09 90.4749C180.71 91.3929 178.075 91.8519 175.185 91.8519ZM175.185 84.6099C176.919 84.6099 178.517 84.3379 179.979 83.7939C181.475 83.2499 182.75 82.4679 183.804 81.4479C184.892 80.4279 185.725 79.2379 186.303 77.8779C186.915 76.5179 187.221 75.0219 187.221 73.3899C187.221 71.7579 186.915 70.2619 186.303 68.9019C185.725 67.5419 184.892 66.3689 183.804 65.3829C182.75 64.3629 181.475 63.5809 179.979 63.0369C178.517 62.4589 176.919 62.1699 175.185 62.1699C173.451 62.1699 171.853 62.4589 170.391 63.0369C168.929 63.5809 167.637 64.3629 166.515 65.3829C165.427 66.4029 164.594 67.5929 164.016 68.9529C163.472 70.3129 163.2 71.7919 163.2 73.3899C163.2 75.0219 163.472 76.5179 164.016 77.8779C164.594 79.2039 165.427 80.3939 166.515 81.4479C167.637 82.4679 168.929 83.2499 170.391 83.7939C171.853 84.3379 173.451 84.6099 175.185 84.6099ZM196.028 91.3419V55.6419H203.066L225.659 82.3149H224.435C224.265 81.1929 224.129 80.1049 224.027 79.0509C223.925 77.9629 223.823 76.8919 223.721 75.8379C223.653 74.7499 223.585 73.6619 223.517 72.5739C223.483 71.4519 223.449 70.3129 223.415 69.1569C223.415 67.9669 223.415 66.7089 223.415 65.3829V55.6419H230.912V91.3419H223.772L200.771 64.4139L202.505 64.4649C202.607 65.7229 202.709 66.8789 202.811 67.9329C202.913 68.9529 203.015 69.9049 203.117 70.7889C203.219 71.6729 203.287 72.5229 203.321 73.3389C203.389 74.1549 203.44 74.9879 203.474 75.8379C203.508 76.6879 203.525 77.5719 203.525 78.4899V91.3419H196.028Z" fill="#553F33"/>
</svg>
